<?xml version="1.0" ?><svg id="Layer_1" style="enable-background:new 0 0 65 65;" version="1.1" viewBox="0 0 65 65" xml:space="preserve" xmlns="http://www.w3.org/2000/svg" xmlns:xlink="http://www.w3.org/1999/xlink"><style type="text/css">
	.st0{fill:#1C1F20;}
</style><g><path class="st0" d="M58.5,62.8h-9c-0.4,0-0.8,0.3-0.8,0.8s0.3,0.8,0.8,0.8h9c0.4,0,0.8-0.3,0.8-0.8S58.9,62.8,58.5,62.8z"/><path class="st0" d="M63.5,62.8h-1c-0.4,0-0.8,0.3-0.8,0.8s0.3,0.8,0.8,0.8h1c0.4,0,0.8-0.3,0.8-0.8S63.9,62.8,63.5,62.8z"/><path class="st0" d="M9.5,60.8H8.3v-1.3c0-0.4-0.3-0.8-0.8-0.8s-0.8,0.3-0.8,0.8v1.3H5.5c-0.4,0-0.8,0.3-0.8,0.8s0.3,0.8,0.8,0.8   h1.3v1.3c0,0.4,0.3,0.8,0.8,0.8s0.8-0.3,0.8-0.8v-1.3h1.3c0.4,0,0.8-0.3,0.8-0.8S9.9,60.8,9.5,60.8z"/><path class="st0" d="M63.5,0.8h-62c-0.4,0-0.8,0.3-0.8,0.8v52c0,0.4,0.3,0.8,0.8,0.8h9.4c0.4,0,0.8-0.3,0.8-0.8s-0.3-0.8-0.8-0.8   H2.3V10.3h60.5v42.5h-8.7c-0.4,0-0.8,0.3-0.8,0.8s0.3,0.8,0.8,0.8h9.4c0.4,0,0.8-0.3,0.8-0.8v-52C64.3,1.1,63.9,0.8,63.5,0.8z    M2.3,8.8V2.3h60.5v6.5H2.3z"/><path class="st0" d="M58.5,49.3c0.4,0,0.8-0.3,0.8-0.8v-34c0-0.4-0.3-0.8-0.8-0.8h-52c-0.4,0-0.8,0.3-0.8,0.8v34   c0,0.4,0.3,0.8,0.8,0.8s0.8-0.3,0.8-0.8V15.3h50.5v33.3C57.8,48.9,58.1,49.3,58.5,49.3z"/><circle class="st0" cx="7.5" cy="5.5" r="1"/><circle class="st0" cx="15.5" cy="5.5" r="1"/><circle class="st0" cx="11.5" cy="5.5" r="1"/><path class="st0" d="M50.7,54L48,51.3c0.7-1.3,1.3-2.7,1.7-4.1h3.8c0.4,0,0.8-0.3,0.8-0.8v-7.9c0-0.4-0.3-0.8-0.8-0.8h-3.8   c-0.4-1.4-1-2.8-1.7-4.1l2.7-2.7c0.3-0.3,0.3-0.8,0-1.1l-5.6-5.6c-0.3-0.3-0.8-0.3-1.1,0L41.3,27c-1.3-0.7-2.7-1.3-4.1-1.7v-3.8   c0-0.4-0.3-0.8-0.8-0.8h-7.9c-0.4,0-0.8,0.3-0.8,0.8v3.8c-1.4,0.4-2.8,1-4.1,1.7L21,24.3c-0.3-0.3-0.8-0.3-1.1,0l-5.6,5.6   c-0.3,0.3-0.3,0.8,0,1.1l2.7,2.7c-0.7,1.3-1.3,2.7-1.7,4.1h-3.8c-0.4,0-0.8,0.3-0.8,0.8v7.9c0,0.4,0.3,0.8,0.8,0.8h3.8   c0.4,1.4,1,2.8,1.7,4.1L14.3,54c-0.3,0.3-0.3,0.8,0,1.1l5.6,5.6c0.3,0.3,0.8,0.3,1.1,0l2.7-2.7c1.3,0.7,2.7,1.3,4.1,1.7v3.8   c0,0.4,0.3,0.8,0.8,0.8h7.9c0.4,0,0.8-0.3,0.8-0.8v-3.8c1.4-0.4,2.8-1,4.1-1.7l2.7,2.7c0.3,0.3,0.8,0.3,1.1,0l5.6-5.6   C51,54.8,51,54.3,50.7,54z M44.6,59.1L42,56.5c-0.2-0.2-0.6-0.3-0.9-0.1c-1.5,0.9-3.1,1.6-4.8,2c-0.3,0.1-0.6,0.4-0.6,0.7v3.7h-6.4   v-3.7c0-0.3-0.2-0.6-0.6-0.7c-1.7-0.4-3.3-1.1-4.8-2c-0.3-0.2-0.7-0.1-0.9,0.1l-2.6,2.6l-4.5-4.5l2.6-2.6c0.2-0.2,0.3-0.6,0.1-0.9   c-0.9-1.5-1.6-3.1-2-4.8c-0.1-0.3-0.4-0.6-0.7-0.6h-3.7v-6.4h3.7c0.3,0,0.6-0.2,0.7-0.6c0.4-1.7,1.1-3.3,2-4.8   c0.2-0.3,0.1-0.7-0.1-0.9l-2.6-2.6l4.5-4.5l2.6,2.6c0.2,0.2,0.6,0.3,0.9,0.1c1.5-0.9,3.1-1.6,4.8-2c0.3-0.1,0.6-0.4,0.6-0.7v-3.7   h6.4v3.7c0,0.3,0.2,0.6,0.6,0.7c1.7,0.4,3.3,1.1,4.8,2c0.3,0.2,0.7,0.1,0.9-0.1l2.6-2.6l4.5,4.5L46.5,33c-0.2,0.2-0.3,0.6-0.1,0.9   c0.9,1.5,1.6,3.1,2,4.8c0.1,0.3,0.4,0.6,0.7,0.6h3.7v6.4h-3.7c-0.3,0-0.6,0.2-0.7,0.6c-0.4,1.7-1.1,3.3-2,4.8   c-0.2,0.3-0.1,0.7,0.1,0.9l2.6,2.6L44.6,59.1z"/><path class="st0" d="M32.5,31.3c-6.2,0-11.3,5-11.3,11.3s5,11.3,11.3,11.3s11.3-5,11.3-11.3S38.7,31.3,32.5,31.3z M32.5,52.3   c-5.4,0-9.8-4.4-9.8-9.8s4.4-9.8,9.8-9.8s9.8,4.4,9.8,9.8S37.9,52.3,32.5,52.3z"/></g></svg>